# xmcd CD database file
#
# Track frame offsets:
#	150
#	22214
#	38088
#	54205
#	75569
#	94796
#	117166
#	135908
#	157076
#	174830
#	198000
#	216444
#
# Disc length: 3053 seconds
#
# Revision: 4
# Processed by: cddbd v1.5.2PL0 Copyright (c) Steve Scherf et al.
# Submitted via: CDex 1.51
#
DISCID=930beb0c
DTITLE=Martini Lizards - New York Bar, pop classics
DYEAR=2006
DGENRE=Swing
TTITLE0=Billie Jean
TTITLE1=Dont Mess With My (Wo)-Man
TTITLE2=Lady Hear Me Tonight
TTITLE3=Like A Virgin
TTITLE4=Bad
TTITLE5=Cant Get Yoy Out Of My Head
TTITLE6=My Favourite Things
TTITLE7=Most Beautiful Girl In The World
TTITLE8=Into The Groove
TTITLE9=Youre making Me High
TTITLE10=On Broadway
TTITLE11=Morning Papers
EXTD=YEAR: 2006
EXTT0=
EXTT1=
EXTT2=
EXTT3=
EXTT4=
EXTT5=
EXTT6=
EXTT7=
EXTT8=
EXTT9=
EXTT10=
EXTT11=
PLAYORDER=
